<?xml version="1.0" encoding="UTF-8" standalone="no"?>
<svg
   xmlns:dc="http://purl.org/dc/elements/1.1/"
   xmlns:cc="http://creativecommons.org/ns#"
   xmlns:rdf="http://www.w3.org/1999/02/22-rdf-syntax-ns#"
   xmlns:svg="http://www.w3.org/2000/svg"
   xmlns="http://www.w3.org/2000/svg"
   xmlns:sodipodi="http://sodipodi.sourceforge.net/DTD/sodipodi-0.dtd"
   xmlns:inkscape="http://www.inkscape.org/namespaces/inkscape"
   inkscape:version="1.0 (4035a4fb49, 2020-05-01)"
   sodipodi:docname="youtube-dl.svg"
   id="svg47"
   version="1.0"
   enable-background="new"
   height="512"
   width="512">
  <metadata
     id="metadata51">
    <rdf:RDF>
      <cc:Work
         rdf:about="">
        <dc:format>image/svg+xml</dc:format>
        <dc:type
           rdf:resource="http://purl.org/dc/dcmitype/StillImage" />
      </cc:Work>
    </rdf:RDF>
  </metadata>
  <sodipodi:namedview
     inkscape:current-layer="g41"
     inkscape:window-maximized="0"
     inkscape:window-y="0"
     inkscape:window-x="0"
     inkscape:cy="205.42795"
     inkscape:cx="330.81062"
     inkscape:zoom="0.83691406"
     showgrid="false"
     id="namedview49"
     inkscape:window-height="1003"
     inkscape:window-width="1280"
     inkscape:pageshadow="2"
     inkscape:pageopacity="0"
     guidetolerance="10"
     gridtolerance="10"
     objecttolerance="10"
     borderopacity="1"
     bordercolor="#666666"
     pagecolor="#ffffff" />
  <title
     id="title2">Paper Icon Theme Template</title>
  <defs
     id="defs13">
    <filter
       color-interpolation-filters="sRGB"
       height="1.0581"
       width="1.0409"
       y="-.029062"
       x="-.02044"
       id="c">
      <feGaussianBlur
         id="feGaussianBlur4"
         stdDeviation="4.0880076" />
    </filter>
    <filter
       color-interpolation-filters="sRGB"
       height="1.0581"
       width="1.0409"
       y="-.029062"
       x="-.02044"
       id="b">
      <feGaussianBlur
         id="feGaussianBlur7"
         stdDeviation="4.0880076" />
    </filter>
    <filter
       color-interpolation-filters="sRGB"
       height="1.12"
       width="1.12"
       y="-.06"
       x="-.06"
       id="a">
      <feGaussianBlur
         id="feGaussianBlur10"
         stdDeviation="6" />
    </filter>
  </defs>
  <g
     id="g15"
     transform="translate(0,212)" />
  <g
     id="g45"
     transform="translate(0,212)">
    <g
       id="g43">
      <g
         id="g41"
         transform="translate(-208,656)">
        <g
           id="g23">
          <path
             id="path17"
             opacity=".2"
             enable-background="new"
             d="m699.1-705.17s-4.6898-33.077-19.083-47.643c-18.253-19.118-38.712-19.213-48.094-20.332-67.169-4.8552-167.93-4.8552-167.93-4.8552h-0.20866s-100.75 0-167.93 4.8552c-9.3829 1.1193-29.835 1.2143-48.094 20.332-14.391 14.566-19.075 47.643-19.075 47.643s-4.8003 38.844-4.8003 77.687v36.416c0 38.843 4.8003 77.686 4.8003 77.686s4.6833 33.078 19.075 47.644c18.259 19.118 42.244 18.513 52.927 20.517 38.4 3.6823 163.2 4.8218 163.2 4.8218s100.86-0.15181 168.03-5.007c9.3824-1.1193 29.842-1.2137 48.094-20.332 14.393-14.566 19.083-47.644 19.083-47.644s4.7932-38.843 4.7932-77.686v-36.416c0-38.843-4.7932-77.687-4.7932-77.687" />
          <path
             id="path19"
             opacity=".1"
             filter="url(#c)"
             enable-background="new"
             d="m699.1-703.17s-4.6898-33.077-19.083-47.643c-18.253-19.118-38.712-19.213-48.094-20.332-67.169-4.8552-167.93-4.8552-167.93-4.8552h-0.20866s-100.75 0-167.93 4.8552c-9.3829 1.1193-29.835 1.2143-48.094 20.332-14.391 14.566-19.075 47.643-19.075 47.643s-4.8003 38.844-4.8003 77.687v36.416c0 38.843 4.8003 77.686 4.8003 77.686s4.6833 33.078 19.075 47.644c18.259 19.118 42.244 18.513 52.927 20.517 38.4 3.6823 163.2 4.8218 163.2 4.8218s100.86-0.15181 168.03-5.007c9.3824-1.1193 29.842-1.2137 48.094-20.332 14.393-14.566 19.083-47.644 19.083-47.644s4.7932-38.843 4.7932-77.686v-36.416c0-38.843-4.7932-77.687-4.7932-77.687" />
          <path
             id="path21"
             opacity=".2"
             filter="url(#b)"
             enable-background="new"
             d="m699.1-703.17s-4.6898-33.077-19.083-47.643c-18.253-19.118-38.712-19.213-48.094-20.332-67.169-4.8552-167.93-4.8552-167.93-4.8552h-0.20866s-100.75 0-167.93 4.8552c-9.3829 1.1193-29.835 1.2143-48.094 20.332-14.391 14.566-19.075 47.643-19.075 47.643s-4.8003 38.844-4.8003 77.687v36.416c0 38.843 4.8003 77.686 4.8003 77.686s4.6833 33.078 19.075 47.644c18.259 19.118 42.244 18.513 52.927 20.517 38.4 3.6823 163.2 4.8218 163.2 4.8218s100.86-0.15181 168.03-5.007c9.3824-1.1193 29.842-1.2137 48.094-20.332 14.393-14.566 19.083-47.644 19.083-47.644s4.7932-38.843 4.7932-77.686v-36.416c0-38.843-4.7932-77.687-4.7932-77.687" />
        </g>
        <g
           id="g33">
          <path
             id="path25"
             fill="#e53935"
             enable-background="new"
             d="m699.1-707.17s-4.6898-33.077-19.083-47.643c-18.253-19.118-38.712-19.213-48.094-20.332-67.169-4.8552-167.93-4.8552-167.93-4.8552h-0.20866s-100.75 0-167.93 4.8552c-9.3829 1.1193-29.835 1.2143-48.094 20.332-14.391 14.566-19.075 47.643-19.075 47.643s-4.8003 38.844-4.8003 77.687v36.416c0 38.843 4.8003 77.686 4.8003 77.686s4.6833 33.078 19.075 47.644c18.259 19.118 42.244 18.513 52.927 20.517 38.4 3.6823 163.2 4.8218 163.2 4.8218s100.86-0.15181 168.03-5.007c9.3824-1.1193 29.842-1.2137 48.094-20.332 14.393-14.566 19.083-47.644 19.083-47.644s4.7932-38.843 4.7932-77.686v-36.416c0-38.843-4.7932-77.687-4.7932-77.687" />
          <path
             id="path27"
             fill="#fff"
             d="m400.02-537.39-0.02452-149.74 144 75.13z" />
          <path
             id="path29"
             fill="#e3e2e0"
             d="m526.28-602.8-126.28-84.326 144 75.13-17.717 9.1956" />
          <path
             id="path31"
             opacity=".2"
             fill="#fff"
             enable-background="new"
             d="m463.79-780s-100.75 2.5e-4 -167.93 4.8555c-9.3829 1.1193-29.835 1.2143-48.094 20.332-14.391 14.566-19.074 47.643-19.074 47.643s-4.8008 38.844-4.8008 77.688v2c0-38.843 4.8008-77.688 4.8008-77.688s4.6828-33.076 19.074-47.643c18.259-19.118 38.711-19.213 48.094-20.332 67.171-4.8552 167.93-4.8555 167.93-4.8555h0.20898s100.76 2.5e-4 167.93 4.8555c9.3824 1.1193 29.841 1.2143 48.094 20.332 14.393 14.566 19.084 47.643 19.084 47.643s4.793 38.844 4.793 77.688v-2c0-38.843-4.793-77.688-4.793-77.688s-4.6913-33.076-19.084-47.643c-18.253-19.118-38.711-19.213-48.094-20.332-67.169-4.8552-167.93-4.8555-167.93-4.8555z" />
        </g>
        <g
           id="g914">
          <circle
             transform="matrix(1,0,0,-1,-1.5e-7,-356)"
             cx="584"
             cy="144"
             r="120"
             enable-background="new"
             fill-rule="evenodd"
             filter="url(#a)"
             opacity=".2"
             id="circle35" />
          <g
             id="g897">
            <circle
               style="fill:#03a9f4;fill-opacity:0.98000002"
               id="circle37"
               fill-rule="evenodd"
               fill="#03a9f4"
               enable-background="new"
               r="120"
               cy="-508"
               cx="584" />
            <path
               id="path39"
               fill="#fff"
               d="m608-516h32l-56 62-56-62h32v-64h48zm-80 64h112v16h-112z" />
          </g>
        </g>
      </g>
    </g>
  </g>
</svg>
