<?xml version="1.0" encoding="UTF-8" standalone="no"?>
<svg
   xmlns:dc="http://purl.org/dc/elements/1.1/"
   xmlns:cc="http://creativecommons.org/ns#"
   xmlns:rdf="http://www.w3.org/1999/02/22-rdf-syntax-ns#"
   xmlns:svg="http://www.w3.org/2000/svg"
   xmlns="http://www.w3.org/2000/svg"
   xmlns:sodipodi="http://sodipodi.sourceforge.net/DTD/sodipodi-0.dtd"
   xmlns:inkscape="http://www.inkscape.org/namespaces/inkscape"
   width="32"
   height="32"
   enable-background="new"
   version="1.0"
   id="svg1853"
   sodipodi:docname="atividade.svg"
   inkscape:version="1.0 (4035a4fb49, 2020-05-01)">
  <metadata
     id="metadata1857">
    <rdf:RDF>
      <cc:Work
         rdf:about="">
        <dc:format>image/svg+xml</dc:format>
        <dc:type
           rdf:resource="http://purl.org/dc/dcmitype/StillImage" />
        <dc:title></dc:title>
      </cc:Work>
    </rdf:RDF>
  </metadata>
  <sodipodi:namedview
     fit-margin-bottom="0"
     fit-margin-right="0"
     fit-margin-left="0"
     fit-margin-top="0"
     inkscape:document-rotation="0"
     pagecolor="#ffffff"
     bordercolor="#666666"
     borderopacity="1"
     objecttolerance="10"
     gridtolerance="10"
     guidetolerance="10"
     inkscape:pageopacity="0"
     inkscape:pageshadow="2"
     inkscape:window-width="1280"
     inkscape:window-height="1003"
     id="namedview1855"
     showgrid="false"
     inkscape:zoom="4.421875"
     inkscape:cx="44.694336"
     inkscape:cy="12.974847"
     inkscape:window-x="1280"
     inkscape:window-y="0"
     inkscape:window-maximized="0"
     inkscape:current-layer="svg1853" />
  <defs
     id="defs1817">
    <filter
       id="a"
       x="-0.024"
       y="-0.024"
       width="1.048"
       height="1.048"
       color-interpolation-filters="sRGB">
      <feGaussianBlur
         stdDeviation="4.48"
         id="feGaussianBlur1811" />
    </filter>
    <filter
       id="b"
       x="-0.059999999"
       y="-0.059999999"
       width="1.12"
       height="1.12"
       color-interpolation-filters="sRGB">
      <feGaussianBlur
         stdDeviation="6"
         id="feGaussianBlur1814" />
    </filter>
    <filter
       color-interpolation-filters="sRGB"
       height="1.048"
       width="1.048"
       y="-0.024"
       x="-0.024"
       id="a-3">
      <feGaussianBlur
         id="feGaussianBlur1980"
         stdDeviation="4.48" />
    </filter>
    <filter
       color-interpolation-filters="sRGB"
       height="1.048"
       width="1.048"
       y="-0.024"
       x="-0.024"
       id="filter2618">
      <feGaussianBlur
         id="feGaussianBlur2616"
         stdDeviation="4.48" />
    </filter>
    <clipPath
       id="e">
      <path
         id="path1986"
         fill="#3776ab"
         d="m 448,-196 c -53.184,0 -96,27.589 -96,61.857 V -84 h -48 c -35.456,0 -64,35.68 -64,80 v 64 c 0,44.32 28.544,80 64,80 h 272 v -274.14 c 0,-34.269 -42.816,-61.857 -96,-61.857 z" />
    </clipPath>
    <filter
       color-interpolation-filters="sRGB"
       height="1.12"
       width="1.12"
       y="-0.059999999"
       x="-0.059999999"
       id="d">
      <feGaussianBlur
         id="feGaussianBlur1983"
         stdDeviation="8.4" />
    </filter>
    <filter
       color-interpolation-filters="sRGB"
       height="1.24"
       width="1.24"
       y="-0.12"
       x="-0.12"
       id="c">
      <feGaussianBlur
         id="feGaussianBlur1989"
         stdDeviation="2" />
    </filter>
    <filter
       color-interpolation-filters="sRGB"
       height="1.24"
       width="1.24"
       y="-0.12"
       x="-0.12"
       id="b-6">
      <feGaussianBlur
         id="feGaussianBlur1992"
         stdDeviation="2" />
    </filter>
  </defs>
  <g
     transform="matrix(0.06541934,0,0,0.06541934,-1.3900308,-1.5732049)"
     id="g917">
    <rect
       id="rect1819"
       opacity="0.2"
       filter="url(#a)"
       enable-background="new"
       ry="36"
       rx="36"
       height="448"
       width="448"
       y="-688"
       x="-256"
       transform="matrix(0,-1,-1,0,-208,226.8)" />
    <rect
       id="rect1821"
       opacity="0.2"
       enable-background="new"
       ry="36"
       rx="36"
       height="448"
       width="448"
       y="-480"
       x="-480.79999"
       transform="matrix(0,-1,-1,0,0,0)" />
    <rect
       id="rect1823"
       stroke-width="8"
       stroke="#000000"
       opacity="0.1"
       filter="url(#a)"
       enable-background="new"
       ry="36"
       rx="36"
       height="448"
       width="448"
       y="-688"
       x="-256"
       transform="matrix(0,-1,-1,0,-208,226.8)" />
    <rect
       id="rect1825"
       fill="#e53935"
       enable-background="new"
       ry="36"
       rx="36"
       height="448"
       width="448"
       y="-480"
       x="-478.79999"
       transform="matrix(0,-1,-1,0,0,0)" />
    <path
       id="path1827"
       opacity="0.2"
       fill="#ffffff"
       enable-background="new"
       d="m 68,30.8 c -19.944,0 -36,16.056 -36,36 v 2 c 0,-19.944 16.056,-36 36,-36 h 376 c 19.944,0 36,16.056 36,36 v -2 c 0,-19.944 -16.056,-36 -36,-36 z" />
    <path
       id="path1829"
       opacity="0.2"
       enable-background="new"
       d="m 88,172.8 v 168 h 24 v -48 h 24 c 26.384,0 48,-21.616 48,-48 v -24 c 0,-26.384 -21.616,-48 -48,-48 z m 24,24 h 24 c 13.504,0 24,10.496 24,24 v 24 c 0,13.504 -10.496,24 -24,24 h -24 z" />
    <path
       id="path1831"
       opacity="0.2"
       enable-background="new"
       d="m 328,340.8 h 24 v -72 h 60 v -24 h -60 v -48 h 72 v -24 h -96 z" />
    <path
       id="path1833"
       opacity="0.2"
       enable-background="new"
       d="m 208,172.8 v 168 h 48 c 26.384,0 48,-21.616 48,-48 v -72 c 0,-26.384 -21.616,-48 -48,-48 z m 24,24 h 24 c 13.504,0 24,10.496 24,24 v 72 c 0,13.504 -10.601,22.325 -24,24 h -24 z" />
    <g
       transform="translate(-208,226.8)"
       id="g1841"
       fill="#ffffff">
      <path
         id="path1835"
         enable-background="new"
         d="m 296,-52 v 168 h 24 V 68 h 24 c 26.384,0 48,-21.616 48,-48 V -4 c 0,-26.384 -21.616,-48 -48,-48 z m 24,24 h 24 c 13.504,0 24,10.496 24,24 v 24 c 0,13.504 -10.496,24 -24,24 h -24 z" />
      <path
         id="path1837"
         enable-background="new"
         d="m 536,116 h 24 V 44 h 60 V 20 h -60 v -48 h 72 v -24 h -96 z" />
      <path
         id="path1839"
         enable-background="new"
         d="m 416,-52 v 168 h 48 c 26.384,0 48,-21.616 48,-48 V -4 c 0,-26.384 -21.616,-48 -48,-48 z m 24,24 h 24 c 13.504,0 24,10.496 24,24 v 72 c 0,13.504 -10.601,22.325 -24,24 h -24 z" />
    </g>
    <circle
       id="circle1843"
       opacity="0.5"
       filter="url(#b)"
       enable-background="new"
       r="120"
       cy="152"
       cx="-584"
       transform="matrix(-1,0,0,1,-208,226.8)" />
    <circle
       style="fill:#ffffff;fill-opacity:1"
       id="circle1845"
       fill="#30a7c0"
       enable-background="new"
       r="120"
       cy="374.79999"
       cx="-376"
       transform="scale(-1,1)" />
    <g
       transform="matrix(0.32131178,0,0,0.32131178,250.43451,161.45259)"
       id="g2740">
      <g
         id="g2037"
         transform="translate(134.79019,615.98873)">
        <g
           id="g2035">
          <g
             id="g2033"
             transform="translate(-208,16)">
            <path
               style="filter:url(#a-3)"
               id="path1997"
               stroke-width="8"
               stroke-linejoin="round"
               stroke-linecap="round"
               stroke="#000000"
               opacity="0.1"
               filter="url(#a)"
               d="m 448,-192 c -53.184,0 -96,27.589 -96,61.857 V -80 h -48 c -35.456,0 -64,35.68 -64,80 v 64 c 0,44.32 28.544,80 64,80 h 48 v 50.143 C 352,228.412 394.816,256 448,256 h 32 c 53.184,0 96,-27.589 96,-61.857 V 144 h 48 c 35.456,0 64,-35.68 64,-80 V 0 c 0,-44.32 -28.544,-80 -64,-80 h -48 v -50.143 C 576,-164.412 533.184,-192 480,-192 Z" />
            <path
               style="filter:url(#a-3)"
               id="path1999"
               opacity="0.2"
               filter="url(#a)"
               d="m 448,-192 c -53.184,0 -96,27.589 -96,61.857 V -80 h -48 c -35.456,0 -64,35.68 -64,80 v 64 c 0,44.32 28.544,80 64,80 h 48 v 50.143 C 352,228.412 394.816,256 448,256 h 32 c 53.184,0 96,-27.589 96,-61.857 V 144 h 48 c 35.456,0 64,-35.68 64,-80 V 0 c 0,-44.32 -28.544,-80 -64,-80 h -48 v -50.143 C 576,-164.412 533.184,-192 480,-192 Z" />
            <path
               id="path2001"
               fill="#3776ab"
               d="m 448,48 c -53.184,0 -96,27.589 -96,61.857 V 160 h -48 c -35.456,0 -64,35.68 -64,80 v 64 c 0,44.32 28.544,80 64,80 H 576 V 109.86 C 576,75.591 533.184,48.003 480,48.003 Z"
               transform="translate(0,-244)" />
            <path
               id="path2003"
               opacity="0.2"
               filter="url(#d)"
               clip-path="url(#e)"
               d="m 480,252 c 53.184,0 96,-27.589 96,-61.857 V 140 h 48 c 35.456,0 64,-35.68 64,-80 V -4 c 0,-44.32 -28.544,-80 -64,-80 h -48 v 48 c 0,64 -64,64 -64,64 h -96 c -64,0 -64,64 -64,64 v 98.143 C 352,224.412 394.816,252 448,252 Z" />
            <path
               id="path2005"
               fill="#ffd343"
               d="m 480,252 c 53.184,0 96,-27.589 96,-61.857 V 140 h 48 c 35.456,0 64,-35.68 64,-80 V -4 c 0,-44.32 -28.544,-80 -64,-80 h -48 v 48 c 0,64 -64,64 -64,64 h -96 c -64,0 -64,64 -64,64 v 98.143 C 352,224.412 394.816,252 448,252 Z" />
            <path
               id="path2007"
               opacity="0.2"
               fill="#ffffff"
               d="m 576,160 v 2 h 48 c 35.456,0 64,35.68 64,80 v -2 c 0,-44.32 -28.544,-80 -64,-80 z m 0,48 c 0,64 -64,64 -64,64 h -96 c -64,0 -64,64 -64,64 v 2 c 0,0 0,-64 64,-64 h 96 c 0,0 64,0 64,-64 z"
               transform="translate(0,-244)" />
            <circle
               id="circle2009"
               opacity="0.2"
               filter="url(#c)"
               enable-background="accumulate"
               color="#000000"
               r="20"
               cy="-128"
               cx="416" />
            <path
               id="path2011"
               opacity="0.2"
               fill="#ffffff"
               d="m 448,48 c -53.184,0 -96,27.589 -96,61.857 v 2 C 352,77.588 394.816,50 448,50 h 32 c 53.184,0 96,27.589 96,61.857 v -2 C 576,75.588 533.184,48 480,48 Z M 304,160 c -35.456,0 -64,35.68 -64,80 v 2 c 0,-44.32 28.544,-80 64,-80 h 48 v -2 z"
               transform="translate(0,-244)" />
            <g
               id="g2019">
              <circle
                 id="circle2013"
                 fill="#ffffff"
                 enable-background="accumulate"
                 color="#000000"
                 r="20"
                 cy="-132"
                 cx="416" />
              <circle
                 style="filter:url(#b-6)"
                 id="circle2015"
                 opacity="0.2"
                 filter="url(#b)"
                 enable-background="accumulate"
                 color="#000000"
                 r="20"
                 cy="-192"
                 cx="-512"
                 transform="scale(-1)" />
              <circle
                 id="circle2017"
                 fill="#ffffff"
                 enable-background="accumulate"
                 color="#000000"
                 r="20"
                 cy="-188"
                 cx="-512"
                 transform="scale(-1)" />
            </g>
            <rect
               id="rect2021"
               opacity="0.1"
               height="2"
               width="64"
               y="-86"
               x="352" />
            <rect
               id="rect2023"
               opacity="0.2"
               fill="#ffffff"
               height="2"
               width="64"
               y="-84"
               x="352" />
            <rect
               id="rect2025"
               opacity="0.1"
               height="2"
               width="64"
               y="138"
               x="512" />
            <rect
               id="rect2027"
               opacity="0.2"
               fill="#ffffff"
               height="2"
               width="64"
               y="140"
               x="512" />
            <path
               id="path2029"
               opacity="0.1"
               d="m 352,140 v -2 h -48 c -35.456,0 -64,-35.68 -64,-80 v 2 c 0,44.32 28.544,80 64,80 z m 0,-48 c 0,-64 64,-64 64,-64 h 96 c 64,0 64,-64 64,-64 v -2 c 0,0 0,64 -64,64 h -96 c 0,0 -64,0 -64,64 z" />
            <path
               id="path2031"
               opacity="0.1"
               d="m 480,252 c 53.184,0 96,-27.589 96,-61.857 v -2 C 576,222.412 533.184,250 480,250 h -32 c -53.184,0 -96,-27.589 -96,-61.857 v 2 C 352,224.412 394.816,252 448,252 Z M 624,140 c 35.456,0 64,-35.68 64,-80 v -2 c 0,44.32 -28.544,80 -64,80 h -48 v 2 z" />
          </g>
        </g>
      </g>
    </g>
  </g>
</svg>
